<?xml version="1.0" encoding="UTF-8"?>
<!-- Created with Inkscape (http://www.inkscape.org/) -->
<svg width="100.15mm" height="100.15mm" version="1.1" viewBox="0 0 100.15 100.15" xmlns="http://www.w3.org/2000/svg">
 <g transform="translate(-51.972 -120.35)">
  <g transform="translate(-6.8792)" stroke-width="9.9057">
   <path d="m107.75 201.7v-62.552h26.373c2.0287 0 4.0856 0.25359 6.1706 0.76076 2.1414 0.45081 4.0856 1.4088 5.8325 2.874 1.8033 1.4088 3.2403 3.5502 4.311 6.4242 1.1271 2.874 1.6906 6.6778 1.6906 11.411 0 4.7336-0.56352 8.5656-1.6906 11.496-1.0707 2.9303-2.4795 5.1563-4.2265 6.6778-1.7469 1.5215-3.6347 2.5359-5.6634 3.043-2.0287 0.50718-4.001 0.76076-5.917 0.76076-1.0144 0-2.1978-0.0281-3.5502-0.0846-1.3525-0.11273-2.7331-0.25354-4.1419-0.42264-1.3525-0.16899-2.6204-0.30993-3.8038-0.42263-1.1834-0.169-1.6572-0.30995-2.3898-0.42266l0.0139 20.456zm12.994-30.346h11.942c1.4652 0 2.705-0.33813 3.7193-1.0144 1.0707-0.73259 1.8596-1.8596 2.3668-3.3812 0.50717-1.5779 0.76076-3.6629 0.76076-6.2551 0-2.5359-0.28175-4.5364-0.84527-6.0016-0.50718-1.5215-1.2679-2.6204-2.2823-3.2966-0.95801-0.67624-2.1132-1.0144-3.4657-1.0144h-12.195z" fill="#29ccd2" style="font-variation-settings:'wght' 700;shape-inside:url(#rect242);white-space:pre"/>
   <path d="m65.73 201.7 19.611-62.551h15.807l19.611 62.551h-13.017l-3.9729-13.102h-21.301l-3.8883 13.102zm19.695-24.344h15.384l-7.6921-27.472z" fill="#166b6f" style="font-variation-settings:'wght' 700;shape-inside:url(#rect236);white-space:pre"/>
  </g>
 </g>
</svg>
