<?xml version="1.0" encoding="UTF-8"?>
<svg width="65.156mm" height="65.013mm" sodipodiDocname="booki_refait.svg" version="1.1" viewBox="0 0 65.156 65.013" xmlSpace="preserve" xmlns="http://www.w3.org/2000/svg" xmlnsSvg="http://www.w3.org/2000/svg">
 <sodipodiNamedview bordercolor="#000000" borderopacity="0.25" pagecolor="#ffffff" showgrid="false"/>
 <path d="m0.080615 0-0.080615 65.013h13.225c14.373 0 19.512-1.9073 24.313-9.108 3.7502-5.6246 3.2596-13.322-0.73432-20.267l-2.7099-4.7119 0.97048-2.7399c2.9691-8.3821 3.9757-16.655-2.2056-22.646-4.3566-4.2226-10.649-5.478-22.691-5.5128zm9.2527 8.9106h5.0576c7.5391 0 11.386 0.92382 13.131 5.1366 1.6297 3.9344 2.0126 7.7039-0.96222 11.378-2.3945 2.2179-5.1043 2.0013-9.9265 2.0872l-7.3163 0.07958zm55.823 6.3278c-10.658 3.0141-18.47 12.805-18.47 24.428-1.7e-5 11.623 7.8123 21.415 18.47 24.429v-9.2775c-5.7439-2.6284-9.7365-8.4218-9.7364-15.152 1.14e-4 -6.7293 3.9929-12.522 9.7364-15.15zm-55.88 21.108h7.7132c7.0608 0 7.5959 0.25178 10.236 2.5223 2.4503 2.1076 3.0649 3.5674 3.0649 7.276 0 3.7086-0.61466 5.1684-3.0649 7.276-2.6397 2.2706-3.1748 2.0634-10.236 2.0634h-7.7132z" fill="#a9ccff" stroke-width="2.2787" style="font-variation-settings:'wght' 300"/>
</svg>
