<?xml version="1.0" encoding="UTF-8"?>
<svg width="26.6" height="25.91" fill="none" version="1.1" viewBox="0 0 26.6 25.91" xmlns="http://www.w3.org/2000/svg">
 <path d="m26.6 0c-1.2129 0.39119-1.9078 0.84529-2.043 1.3633-0.072 0.24-0.06084 0.43217 0.03516 0.57617 0.12 0.144 0.30102 0.31191 0.54102 0.50391 0.216 0.168 0.38391 0.33591 0.50391 0.50391 0.144 0.168 0.21484 0.38248 0.21484 0.64648 0 0.144-0.03542 0.32502-0.10742 0.54102l-5.4727 17.963c-0.168 0.576-0.37133 0.99772-0.61133 1.2617s-0.54039 0.49159-0.90039 0.68359c-0.408 0.216-0.65986 0.46786-0.75586 0.75586-0.096 0.336 0.0011 0.61212 0.28906 0.82812 0.28036 0.18691 0.72543 0.27825 1.3242 0.2832h6.9824zm-15.965 6.8711c-2.112 0-4.1046 0.40666-5.9766 1.2227-1.8226 0.7811-3.3725 1.8934-4.6582 3.3281v13.191c0.90937 0.60352 2.0426 1.0359 3.4004 1.2969h6.627c0.93366-0.19765 1.8332-0.48005 2.6953-0.85938 1.824-0.816 3.3594-1.9559 4.6074-3.4199 1.248-1.488 2.1006-3.2156 2.5566-5.1836 0.192-0.888 0.28711-1.6921 0.28711-2.4121 0-2.136-0.77984-3.8655-2.3398-5.1855-1.536-1.32-3.9352-1.9785-7.1992-1.9785zm-0.10742 3.2031c0.288 0 0.50248 0.09706 0.64648 0.28906 0.168 0.192 0.25195 0.53897 0.25195 1.043 0 1.056-0.37124 2.7482-1.1152 5.0762-0.816 2.64-1.5007 4.4161-2.0527 5.3281-0.528 0.912-1.0429 1.3449-1.5469 1.2969-0.28801 0-0.51559-0.08395-0.68359-0.25195-0.168-0.192-0.25195-0.55208-0.25195-1.0801 0-1.008 0.38238-2.7618 1.1504-5.2578 0.768-2.496 1.4285-4.1862 1.9805-5.0742 0.576-0.912 1.1171-1.3691 1.6211-1.3691z" fill="#000" stroke-width="6.1324" style="font-variation-settings:'wght' 300"/>
</svg>
