<?xml version="1.0" encoding="UTF-8"?>
<!-- Created with Inkscape (http://www.inkscape.org/) -->
<svg width="35.257mm" height="35.257mm" version="1.1" viewBox="0 0 35.257 35.257" xmlns="http://www.w3.org/2000/svg">
 <g transform="translate(-63.676 -111.19)">
  <path d="m63.676 111.19v35.257h7.0487v-11.53c0.41276 0.0635 0.95277 0.14293 1.6195 0.23823 0.66677 0.0635 1.381 0.14293 2.143 0.23822 0.79377 0.0953 1.5717 0.1747 2.3337 0.23823 0.76202 0.0318 1.4289 0.0475 2.0004 0.0475 1.0795 0 2.1911-0.14252 3.3342-0.42839 1.143-0.28588 2.2062-0.85803 3.1905-1.7157s1.7785-2.1119 2.3818-3.7636c0.63502-1.6517 0.9524-3.812 0.9524-6.4802s-0.31738-4.8122-0.9524-6.4322c-0.60327-1.62-1.4133-2.8269-2.4293-3.621-0.98428-0.82587-2.0796-1.366-3.2861-1.6201-1.1748-0.28588-2.3338-0.42891-3.4768-0.42891zm7.0487 6.3371h7.1443c0.76202 0 1.4131 0.19037 1.9529 0.57154 0.57152 0.38117 0.99995 1.0006 1.2857 1.8583 0.31751 0.82587 0.47646 1.9534 0.47646 3.3827 0 1.4612-0.14316 2.6365-0.42891 3.5259-0.28576 0.85762-0.72998 1.4929-1.3333 1.9058-0.57152 0.38117-1.2705 0.57206-2.096 0.57206h-7.0011zm28.209 3.3595c-0.31527 0.0645-0.62325 0.134-0.91829 0.21394-1.4923 0.38117-2.715 1.0643-3.6675 2.049-0.92078 0.95292-1.6034 2.2871-2.0479 4.0023-0.41276 1.6835-0.61908 3.8275-0.61908 6.4322 0 2.4776 0.20632 4.558 0.61908 6.2415 0.44451 1.6835 1.1272 3.0334 2.0479 4.0499 0.95253 1.0164 2.1752 1.7469 3.6675 2.1916 0.29334 0.0812 0.60164 0.15234 0.91829 0.21755v-8.9674c-0.13386-0.98103-0.20412-2.2164-0.20412-3.7331 0-1.5461 0.07022-2.7831 0.20412-3.7398z" fill="#29ccd2" stroke-width=".93645" style="font-variation-settings:'wght' 700"/>
 </g>
</svg>
