<?xml version="1.0" encoding="UTF-8"?>
<!-- Created with Inkscape (http://www.inkscape.org/) -->
<svg width="51.918mm" height="51.818mm" version="1.1" viewBox="0 0 51.918 51.818" xml:space="preserve" xmlns="http://www.w3.org/2000/svg" xmlns:xlink="http://www.w3.org/1999/xlink"><defs><linearGradient id="linearGradient47625" x1="8.4083" x2="8.4083" y1="103.28" y2="51.24" gradientUnits="userSpaceOnUse"><stop stop-color="#5d2f16" offset="0"/><stop stop-color="#f9844e" offset="1"/></linearGradient></defs><g transform="translate(-8.4083 -51.35)"><path d="m42.699 51.35c-18.974 0.0058-30.201 3.8213-33.774 11.474-0.221 0.47341-0.38547 0.87286-0.51728 1.2599v8.0698c0.36577 1.2935 0.9825 2.3343 1.9658 3.3967 0.97657 1.0551 3.8267 2.6615 6.0606 3.4158 4.8535 1.6389 7.9423 1.9538 22.578 2.3022 13.397 0.31888 18.612 0.6245 21.313 1.3627v-8.4527c-2.9652-0.12074-6.7751-0.2384-10.73-0.32298-14.378-0.3075-18.444-0.64214-20.635-1.6991-1.6856-0.81308-2.1529-2.2006-1.1803-3.5057 1.1608-1.5576 3.4679-2.1802 9.7467-2.6293 11.511-0.82343 21.076 0.84614 22.799 3.8902v-17.247c-3.688-0.74848-7.8456-1.1169-13.729-1.2645-1.3338-0.03347-2.633-0.05-3.898-0.04961zm-34.291 33.087v6.4161c1.6405 2.8699 4.3928 5.5272 7.7256 7.2306 5.4685 2.7948 9.775 4.0504 17.257 5.0317 0.15157 0.0199 0.32516 0.0332 0.47956 0.0522h26.23c0.07534-8e-3 0.15037-0.0164 0.22531-0.0248v-14.724c-2.4706 0.66295-6.5206 0.8701-13.2 0.76378-10.612-0.16893-15.914-1.1964-18.434-3.5729l-1.2439-1.1731z" fill="url(#linearGradient47625)" stroke-width="1.2098" style="font-variation-settings:'wght' 300"/></g></svg>
